# xmcd CD database file
#
# Track frame offsets:
#	150
#	51249
#	98365
#	152244
#	201254
#
# Disc length: 2808 seconds
#
# Revision: 0
# Processed by: cddbd v1.5.2PL0 Copyright (c) Steve Scherf et al.
# Submitted via: CDex 1.51
#
DISCID=390af605
DTITLE=Simply Acoustic Trio - JazzFest Berlin 2006
DYEAR=2006
DGENRE=Jazz
TTITLE0=Simply Acoustic Trio - Free-bop
TTITLE1=Simply Acoustic Trio - Sister's Song
TTITLE2=Simply Acoustic Trio - Hyperballad
TTITLE3=Simply Acoustic Trio - Shine
TTITLE4=Simply Acoustic Trio - Young And Movie
EXTD=YEAR: 2006
EXTT0=
EXTT1=
EXTT2=
EXTT3=
EXTT4=
PLAYORDER=
